<?xml version="1.0" standalone="no"?>
<!DOCTYPE svg PUBLIC "-//W3C//DTD SVG 20010904//EN"
 "http://www.w3.org/TR/2001/REC-SVG-20010904/DTD/svg10.dtd">
<svg version="1.0" xmlns="http://www.w3.org/2000/svg"
 width="700.000000pt" height="700.000000pt" viewBox="0 0 700.000000 700.000000"
 preserveAspectRatio="xMidYMid meet">
<metadata>
Created by potrace 1.14, written by Peter Selinger 2001-2017
</metadata>
<g transform="translate(0.000000,700.000000) scale(0.100000,-0.100000)"
fill="#000000" stroke="none">
<path d="M1479 6996 c-2 -2 -30 -7 -62 -11 -126 -14 -321 -86 -458 -168 -451
-270 -789 -809 -908 -1448 -41 -219 -46 -287 -45 -564 1 -324 21 -486 91 -740
130 -473 415 -882 763 -1092 169 -103 375 -182 544 -209 21 -3 48 -8 60 -12
11 -3 855 -7 1875 -8 1724 -2 1998 -5 2091 -19 69 -12 182 -46 229 -70 125
-63 182 -184 182 -385 1 -255 -144 -484 -375 -595 -50 -24 -116 -49 -146 -56
-45 -11 -380 -13 -1760 -13 l-1705 0 -82 21 c-337 89 -559 367 -589 741 l-7
82 -589 0 -589 0 6 -137 c3 -76 8 -154 10 -173 6 -60 16 -134 20 -160 2 -14 7
-43 11 -65 3 -22 13 -71 21 -110 8 -38 17 -81 20 -95 21 -104 102 -358 160
-500 163 -396 381 -697 694 -955 93 -77 266 -169 384 -204 175 -52 74 -50
2200 -50 2081 0 2034 -1 2202 43 361 95 726 411 955 831 52 96 138 287 138
307 0 8 3 18 7 22 22 22 114 355 129 466 2 19 9 60 14 90 32 177 34 634 5 830
-3 19 -8 49 -10 65 -3 17 -8 48 -11 70 -10 69 -61 266 -94 360 -65 184 -164
374 -268 515 -55 74 -275 300 -292 300 -5 0 -15 6 -23 14 -24 24 -148 101
-224 140 -176 88 -338 132 -558 151 -27 2 -903 5 -1945 5 -1804 2 -1899 2
-1983 20 -216 45 -351 156 -404 332 -17 58 -24 215 -12 288 15 93 20 112 44
175 50 135 142 234 281 304 134 68 -5 64 1909 65 1365 1 1745 -1 1800 -11 301
-55 521 -270 603 -588 23 -90 31 -140 32 -202 l0 -43 591 0 591 0 -6 141 c-7
145 -8 160 -26 289 -12 88 -14 104 -41 235 -86 422 -271 849 -498 1154 -259
348 -595 572 -928 620 -64 9 -4014 16 -4024 7z"/>
</g>
</svg>
